<?xml version="1.0" encoding="UTF-8"?>
<svg version="1.1" xmlns="http://www.w3.org/2000/svg" width="415" height="342">
<path d="M0 0 C136.95 0 273.9 0 415 0 C415 112.86 415 225.72 415 342 C278.05 342 141.1 342 0 342 C0 229.14 0 116.28 0 0 Z " fill="#010101" transform="translate(0,0)"/>
<path d="M0 0 C2.00480039 1.05827168 3.99829193 2.13821825 5.98046875 3.23828125 C6.99044922 3.76873047 8.00042969 4.29917969 9.04101562 4.84570312 C21.13858502 11.3536365 21.13858502 11.3536365 22.83203125 16.61328125 C22.81914062 17.25265625 22.80625 17.89203125 22.79296875 18.55078125 C22.80585938 19.19015625 22.81875 19.82953125 22.83203125 20.48828125 C20.85340433 26.6336637 13.77345568 29.88322448 8.54296875 32.98828125 C7.74117187 33.47127686 6.939375 33.95427246 6.11328125 34.4519043 C1.84369573 37.00892119 -2.45528287 39.49306508 -6.83203125 41.86328125 C-8.07919922 42.55357422 -8.07919922 42.55357422 -9.3515625 43.2578125 C-11.83203125 44.55078125 -11.83203125 44.55078125 -14.71875 45.75 C-17.63973484 47.10660802 -19.6593524 48.16363195 -21.83203125 50.55078125 C-22.3522822 54.05562974 -22.13201156 57.22279092 -21.875 60.75390625 C-21.75941858 70.96710078 -27.40345157 80.22879616 -32.83203125 88.55078125 C-36.31987881 94.18091081 -39.51665945 99.83850847 -42.421875 105.7890625 C-44.10318846 109.08182876 -45.92336241 112.28632542 -47.76953125 115.48828125 C-53.71646522 125.81196081 -59.28626468 136.30953675 -64.80395508 146.8671875 C-67.54962018 152.11643183 -70.30507654 157.35677289 -73.17578125 162.5390625 C-74.61250019 165.1515868 -76.02212891 167.77589723 -77.42578125 170.40625 C-78.39436743 172.20451533 -79.36311914 174.00269151 -80.33203125 175.80078125 C-80.78320312 176.65357666 -81.234375 177.50637207 -81.69921875 178.38500977 C-86.14147102 186.58183183 -90.69706051 193.46422117 -99.83203125 196.55078125 C-110.18795729 199.26226977 -121.18965047 199.207068 -131.83203125 199.55078125 C-132.94771484 199.59380371 -132.94771484 199.59380371 -134.0859375 199.63769531 C-143.93174168 199.99580697 -150.69858489 199.90935944 -158.35546875 193.1328125 C-162.88567725 188.27901768 -165.91468982 182.45696757 -168.83203125 176.55078125 C-170.25387665 173.81331418 -171.69920145 171.08840735 -173.14453125 168.36328125 C-173.50998047 167.67169922 -173.87542969 166.98011719 -174.25195312 166.26757812 C-176.36393414 162.28071241 -178.50395409 158.31043425 -180.66796875 154.3515625 C-183.87056879 148.49208098 -187.03068774 142.61028619 -190.18222046 136.72320557 C-191.16620612 134.88529647 -192.15107272 133.04786117 -193.13598633 131.21044922 C-195.99732799 125.86943584 -198.8531272 120.5258835 -201.66796875 115.16015625 C-202.07362061 114.38752441 -202.47927246 113.61489258 -202.8972168 112.81884766 C-203.61527127 111.44771819 -204.33054899 110.0751287 -205.04223633 108.70068359 C-206.51083172 105.89526584 -208.04428878 103.23615543 -209.81640625 100.609375 C-212.17337438 97.0328129 -214.0294539 93.33702469 -215.89453125 89.48828125 C-218.05436548 85.0575356 -220.27062333 80.76703136 -222.83203125 76.55078125 C-226.90334089 68.69410679 -228.57265376 60.76030537 -226.13671875 52.0703125 C-225.19207552 49.76427168 -224.10712377 47.69068415 -222.83203125 45.55078125 C-222.45433594 44.885625 -222.07664062 44.22046875 -221.6875 43.53515625 C-214.83499704 33.01832392 -202.05946382 27.16053316 -190.83203125 22.55078125 C-189.95289063 22.17179687 -189.07375 21.7928125 -188.16796875 21.40234375 C-181.2618133 18.62736286 -174.25765375 17.41534812 -166.9453125 16.26171875 C-164.18566851 15.81730855 -161.51483424 15.24067033 -158.8125 14.52734375 C-149.62624183 12.19362156 -140.43341623 12.38972127 -131.01953125 12.42578125 C-130.2831543 12.42766449 -129.54677734 12.42954773 -128.78808594 12.43148804 C-78.80953066 12.58162479 -78.80953066 12.58162479 -64.8515625 20.703125 C-62.02853928 21.8880303 -60.74473097 21.49374159 -57.83203125 20.55078125 C-55.29347896 19.25455958 -52.8507996 17.92387454 -50.39453125 16.48828125 C-49.69295898 16.08633545 -48.99138672 15.68438965 -48.26855469 15.27026367 C-46.11898068 14.03733428 -43.97488803 12.7953421 -41.83203125 11.55078125 C-37.18081317 8.85603732 -32.51726112 6.18622305 -27.83203125 3.55078125 C-26.78015625 2.94621094 -25.72828125 2.34164063 -24.64453125 1.71875 C-23.12859375 0.89310547 -23.12859375 0.89310547 -21.58203125 0.05078125 C-20.27492188 -0.67625 -20.27492188 -0.67625 -18.94140625 -1.41796875 C-12.06132269 -3.69980551 -6.5327499 -3.08547966 0 0 Z " fill="#F7F7F7" transform="translate(327.83203125,27.44921875)"/>
<path d="M0 0 C1.15798096 0.16822266 1.15798096 0.16822266 2.33935547 0.33984375 C19.13426265 2.80375587 38.77353189 8.48241595 50 22 C52.99146373 26.48719559 52.57492002 30.74250772 52 36 C48.59661377 44.04436744 38.57560204 49.24298641 31 53 C27.95951652 54.19174039 24.87364113 55.17552318 21.75 56.125 C20.90663086 56.38506836 20.06326172 56.64513672 19.19433594 56.91308594 C13.16558542 58.7340052 7.23752106 60.11900015 1 61 C-0.07797852 61.16564453 -1.15595703 61.33128906 -2.26660156 61.50195312 C-11.21935152 62.80952264 -19.9364023 63.31540562 -29 63.25 C-29.66011078 63.2478952 -30.32022156 63.24579041 -31.00033569 63.24362183 C-63.75581596 63.12209202 -63.75581596 63.12209202 -70 60 C-71.43393653 59.82251866 -72.8724964 59.68108853 -74.3125 59.5625 C-77.90471584 59.19641431 -80.67742399 58.44830236 -84 57 C-85.175625 56.731875 -86.35125 56.46375 -87.5625 56.1875 C-100.96314844 52.90673861 -112.30357955 46.54463068 -120 35 C-120.73730613 30.49900326 -120.44784822 26.91361036 -118.4375 22.8125 C-110.91251318 14.1298229 -101.9319678 8.94516375 -91.125 5.3125 C-90.29097656 5.01794922 -89.45695312 4.72339844 -88.59765625 4.41992188 C-82.79915808 2.42584793 -77.03782943 1.04514543 -71 0 C-69.78957031 -0.21450806 -69.78957031 -0.21450806 -68.5546875 -0.43334961 C-45.44230801 -4.35485378 -23.09697858 -3.58821195 0 0 Z " fill="#020202" transform="translate(237,58)"/>
<path d="M0 0 C1.14855469 0.32613281 2.29710937 0.65226562 3.48046875 0.98828125 C25.04185442 7.07507744 45.28449965 10.40501489 67.6875 10.3125 C68.56063843 10.31134186 69.43377686 10.31018372 70.33337402 10.30899048 C83.73516765 10.27390645 96.83453861 9.71578754 110 7 C111.23105469 6.74863281 112.46210938 6.49726563 113.73046875 6.23828125 C117.99629456 5.25625801 121.99942524 4.09146122 126 2.3125 C129 1 129 1 133 1 C131.42383191 6.51658831 129.07768576 10.92231424 125 15 C107.25872174 20.18132133 88.50520856 21.50512006 70.13696289 21.39111328 C67.06806905 21.37502919 64.00049507 21.3910692 60.93164062 21.41015625 C47.71348436 21.42204344 35.02425068 20.23476492 22 18 C22.49653076 18.83934082 22.99306152 19.67868164 23.50463867 20.54345703 C33 36.62805987 33 36.62805987 33 40 C39.58664316 40.75075066 46.09472789 41.17812331 52.72265625 41.23828125 C53.61868057 41.24780319 54.5147049 41.25732513 55.43788147 41.26713562 C58.31278712 41.29146011 61.18750554 41.30410393 64.0625 41.3125 C65.5282547 41.31842163 65.5282547 41.31842163 67.02362061 41.32446289 C81.72832947 41.35222755 95.7661095 40.55785525 110.17626953 37.3671875 C112 37 112 37 114 37 C113.38655243 38.68698082 112.70286303 40.34827188 112 42 C111.5875 43.19625 111.175 44.3925 110.75 45.625 C109.12118219 48.46309164 108.05993073 48.97911505 104.90625 50.078125 C101.27442308 50.86967702 97.68250195 51.49501555 94 52 C92.82276367 52.17345947 91.64552734 52.34691895 90.43261719 52.52563477 C85.41212413 53.1470479 80.42730842 53.12530798 75.375 53.09765625 C73.89374634 53.09553383 73.89374634 53.09553383 72.38256836 53.09336853 C69.25501364 53.08780927 66.12753277 53.07526446 63 53.0625 C60.86849062 53.05747973 58.73698012 53.05291775 56.60546875 53.04882812 C51.403621 53.03785322 46.20181578 53.02115612 41 53 C41.30292969 53.56509277 41.60585937 54.13018555 41.91796875 54.71240234 C43.28292254 57.26434096 44.64152861 59.81960517 46 62.375 C46.47695312 63.26445312 46.95390625 64.15390625 47.4453125 65.0703125 C47.89648438 65.92109375 48.34765625 66.771875 48.8125 67.6484375 C49.23144531 68.43395996 49.65039062 69.21948242 50.08203125 70.02880859 C51 72 51 72 51 74 C51.97759277 73.93941406 52.95518555 73.87882812 53.96240234 73.81640625 C57.63376737 73.5896936 61.30536919 73.36702934 64.97705078 73.14550781 C66.557846 73.04958499 68.13857744 72.95260444 69.71923828 72.85449219 C78.15763794 72.33142883 86.54057102 71.86437789 95 72 C93.51592752 76.20487203 91.97641235 79.64984752 89 83 C85.52146747 84.07362115 82.05990452 84.21203608 78.4375 84.375 C77.42059082 84.43751953 76.40368164 84.50003906 75.35595703 84.56445312 C72.2380036 84.74131693 69.12029128 84.87199314 66 85 C65.05753418 85.05446289 64.11506836 85.10892578 63.14404297 85.16503906 C60.55430571 85.31339728 57.96754585 85.41629494 55.375 85.5 C54.6008374 85.54302246 53.8266748 85.58604492 53.02905273 85.63037109 C48.92583142 85.67878938 47.28571496 85.26623439 44.25 82.4375 C43.46435242 81.31580846 42.7148577 80.16808069 42 79 C41.45013428 78.12504883 41.45013428 78.12504883 40.88916016 77.23242188 C39.75237862 75.34535443 38.68214134 73.43273426 37.625 71.5 C37.23634766 70.80003906 36.84769531 70.10007812 36.44726562 69.37890625 C33.4029392 63.85012952 30.59495544 58.22531359 27.80859375 52.5625 C23.79033352 44.647482 19.30395319 36.97835487 14.859375 29.296875 C11.12732085 22.83578927 7.57617839 16.33932555 4.32421875 9.62109375 C3.0167419 6.9430247 3.0167419 6.9430247 1.33203125 4.28515625 C0 2 0 2 0 0 Z " fill="#070707" transform="translate(136,126)"/>
<path d="M0 0 C0 3.96 0 7.92 0 12 C-2.31 12.33 -4.62 12.66 -7 13 C-7.33 14.98 -7.66 16.96 -8 19 C-3.38 19 1.24 19 6 19 C6 15.04 6 11.08 6 7 C10.95 7 15.9 7 21 7 C21 10.96 21 14.92 21 19 C24.3 19 27.6 19 31 19 C31 22.96 31 26.92 31 31 C27.7 31 24.4 31 21 31 C21.495 40.405 21.495 40.405 22 50 C24.97 50.33 27.94 50.66 31 51 C31.02686553 52.97909398 31.04633375 54.95828971 31.0625 56.9375 C31.07410156 58.03964844 31.08570313 59.14179688 31.09765625 60.27734375 C31 63 31 63 30 64 C16.76650712 65.24174866 16.76650712 65.24174866 11.75 61.6875 C7.09834709 57.14156647 7.09834709 57.14156647 6.77294922 53.36450195 C6.78342285 52.33284912 6.79389648 51.30119629 6.8046875 50.23828125 C6.81113281 49.12001953 6.81757812 48.00175781 6.82421875 46.84960938 C6.84097656 45.68236328 6.85773438 44.51511719 6.875 43.3125 C6.88402344 42.13365234 6.89304688 40.95480469 6.90234375 39.74023438 C6.92593483 36.82673658 6.96180614 33.91334296 7 31 C2.05 31 -2.9 31 -8 31 C-8 41.56 -8 52.12 -8 63 C-12.95 63 -17.9 63 -23 63 C-23 52.44 -23 41.88 -23 31 C-24.98 31 -26.96 31 -29 31 C-29 27.37 -29 23.74 -29 20 C-27.02 20 -25.04 20 -23 20 C-23.03480469 19.34773438 -23.06960937 18.69546875 -23.10546875 18.0234375 C-23.27377137 12.58966721 -23.2744013 8.58416183 -20 4 C-14.4740911 -1.67525779 -7.46220859 -0.36799933 0 0 Z " fill="#F4F4F4" transform="translate(108,257)"/>
<path d="M0 0 C3.83002762 3.23424555 6.15204523 6.33148269 8 11 C8.04600959 12.66603148 8.05346346 14.33419106 8 16 C5.56065775 16.13501894 3.12875896 16.23403897 0.6875 16.3125 C-0.00279297 16.35439453 -0.69308594 16.39628906 -1.40429688 16.43945312 C-3.42578125 16.48828125 -3.42578125 16.48828125 -7 16 C-8.91796875 13.54296875 -8.91796875 13.54296875 -10 11 C-11.73849628 9.26150372 -14.0786637 9.82783704 -16.4375 9.8125 C-17.42621094 9.79832031 -18.41492188 9.78414063 -19.43359375 9.76953125 C-22.16584415 9.73849247 -22.16584415 9.73849247 -24 12 C-23.67673447 15.59679066 -23.67673447 15.59679066 -23 19 C-21.42412109 19.36351562 -21.42412109 19.36351562 -19.81640625 19.734375 C3.26890581 25.19015334 3.26890581 25.19015334 8.09375 32.703125 C10.13538873 37.87762316 9.79351321 43.57866928 9 49 C6.14982098 54.44573109 1.72340309 57.8378255 -4 60 C-11.45763783 62.13236543 -22.13052108 62.31055081 -29.625 60 C-34.10714466 57.34391427 -37.38658806 54.55067951 -40 50 C-40.82817989 46.53446154 -40.95002626 43.59810946 -41 40 C-36.05 40 -31.1 40 -26 40 C-25.34 41.65 -24.68 43.3 -24 45 C-21.4626776 47.45547329 -19.7443912 48.01153282 -16.2265625 47.95703125 C-13.46869605 47.71243898 -10.73958566 47.39822348 -8 47 C-7.67 44.36 -7.34 41.72 -7 39 C-11.07919603 37.61722169 -15.14313133 36.24787987 -19.28125 35.05078125 C-30.55215588 31.7806675 -30.55215588 31.7806675 -35 28 C-35.94875 27.195625 -36.8975 26.39125 -37.875 25.5625 C-41.0268764 21.57420332 -40.62568496 16.92733203 -40.41015625 12.05859375 C-39.60824366 6.07861698 -36.55341164 3.30399973 -32.0625 -0.3125 C-23.79709407 -6.57317527 -8.20303843 -6.24896476 0 0 Z " fill="#F4F4F4" transform="translate(48,260)"/>
<path d="M0 0 C2.64 0 5.28 0 8 0 C8.33 7.59 8.66 15.18 9 23 C10.32 21.68 11.64 20.36 13 19 C15.5 18.25 15.5 18.25 19 18 C19.92683594 17.92523438 20.85367187 17.85046875 21.80859375 17.7734375 C27.50487047 17.50320215 32.09645852 17.38212537 36.53125 21.2734375 C42.11975094 27.84289871 43.7782329 34.32943618 43.42578125 42.87890625 C42.51938085 49.52307061 39.67857997 55.17964488 35 60 C29.16952447 64.26392427 22.94787972 63.76475491 16 63 C13.03943776 61.83879008 11.24972288 60.24972288 9 58 C8.67 59.32 8.34 60.64 8 62 C5.36 62 2.72 62 0 62 C0 41.54 0 21.08 0 0 Z " fill="#EBEBEB" transform="translate(321,258)"/>
<path d="M0 0 C5.26051075 4.33418495 8.1296139 7.70098316 9.66796875 14.3671875 C9.66796875 17.3371875 9.66796875 20.3071875 9.66796875 23.3671875 C-0.89203125 23.3671875 -11.45203125 23.3671875 -22.33203125 23.3671875 C-21.34203125 25.3471875 -20.35203125 27.3271875 -19.33203125 29.3671875 C-15.40906692 30.67484228 -12.47200692 30.5643292 -8.33203125 30.3671875 C-7.67203125 29.7071875 -7.01203125 29.0471875 -6.33203125 28.3671875 C-3.07421875 28.171875 -3.07421875 28.171875 0.79296875 28.2421875 C2.71496094 28.26925781 2.71496094 28.26925781 4.67578125 28.296875 C6.15691406 28.33167969 6.15691406 28.33167969 7.66796875 28.3671875 C7.20564026 32.92670295 5.74744267 34.68815136 2.29296875 37.6171875 C1.50148437 38.30296875 0.71 38.98875 -0.10546875 39.6953125 C-5.73945633 43.92574528 -14.55360777 43.17806112 -21.33203125 42.3671875 C-27.70827681 40.3073012 -32.15028982 36.59786871 -35.23046875 30.625 C-37.94346722 24.42741635 -38.60145678 18.19238977 -36.453125 11.71875 C-33.59728943 5.44156687 -29.91636523 0.26351842 -23.38671875 -2.4375 C-15.59144153 -4.66908917 -6.82230515 -4.77675637 0 0 Z " fill="#F3F3F3" transform="translate(177.33203125,278.6328125)"/>
<path d="M0 0 C3.38135197 1.4210749 5.834673 3.02558577 8 6 C9.72563832 11.0308333 10.23791018 15.38018245 10.1953125 20.68359375 C10.1924826 21.38396255 10.18965271 22.08433136 10.18673706 22.80592346 C10.17564885 25.0166317 10.15056703 27.22691671 10.125 29.4375 C10.11495546 30.94725972 10.1058322 32.45702588 10.09765625 33.96679688 C10.07574714 37.64466597 10.04129758 41.3222916 10 45 C7.69 45 5.38 45 3 45 C2.505 42.525 2.505 42.525 2 40 C1.13375 40.928125 1.13375 40.928125 0.25 41.875 C-4.68741181 46.53811116 -9.2503959 46.47958221 -15.85546875 46.390625 C-20.46060078 45.81855891 -22.00981133 44.47508413 -25 41 C-27.70940495 36.93589258 -27.62868253 33.76818954 -27 29 C-24.81077035 23.95525342 -21.86634031 21.80533055 -16.92578125 19.8125 C-10.75769122 18.09959916 -4.35761226 17.59285709 2 17 C0.90213575 11.59212615 0.90213575 11.59212615 -3 8 C-7.62268633 7.33630881 -11.68004854 7.0663758 -15.5625 9.8125 C-17.15148522 12.02658463 -17.15148522 12.02658463 -18 15 C-20.31 15 -22.62 15 -25 15 C-24.75331325 10.80632522 -24.44696258 8.5462876 -21.75 5.25 C-14.74024366 -0.48525519 -8.96631307 -1.23324712 0 0 Z " fill="#E8E8E8" transform="translate(304,275)"/>
<path d="M0 0 C4.62 0 9.24 0 14 0 C14.33 1.65 14.66 3.3 15 5 C15.6496875 4.0409375 15.6496875 4.0409375 16.3125 3.0625 C20.55026472 -0.18973804 24.72860935 0.2510186 30 0 C30 4.29 30 8.58 30 13 C28.4325 13.0825 26.865 13.165 25.25 13.25 C22.01939723 13.42003172 20.44902897 13.64928648 17.87695312 15.65820312 C15.49755157 18.62688415 15.46460399 20.30519655 15.390625 24.078125 C15.35839844 25.23828125 15.32617188 26.3984375 15.29296875 27.59375 C15.27169922 29.40359375 15.27169922 29.40359375 15.25 31.25 C15.22035156 32.47203125 15.19070312 33.6940625 15.16015625 34.953125 C15.08948587 37.96839445 15.04247603 40.98420161 15 44 C10.05 44 5.1 44 0 44 C0 29.48 0 14.96 0 0 Z " fill="#F4F5F4" transform="translate(190,276)"/>
<path d="M0 0 C3.5 1.75 3.5 1.75 6 4 C6.78375 4.61875 7.5675 5.2375 8.375 5.875 C10.51998472 8.67998002 10.31298188 10.55719931 10 14 C7.69 14 5.38 14 3 14 C2.9175 13.38125 2.835 12.7625 2.75 12.125 C2.20083686 9.88015395 2.20083686 9.88015395 0.26953125 8.87890625 C-2.33251651 7.87122854 -4.28000898 7.76633499 -7.0625 7.8125 C-7.91972656 7.81894531 -8.77695312 7.82539063 -9.66015625 7.83203125 C-12.15477968 7.91409966 -12.15477968 7.91409966 -15 9 C-13.90213575 14.40787385 -13.90213575 14.40787385 -10 18 C-8.30129558 18.32581708 -6.59031669 18.59014413 -4.875 18.8125 C0.69340362 19.75165971 5.54029672 21.45184047 10 25 C12.12226486 28.45122305 12.47635786 30.95095817 12 35 C9.5380751 40.4919863 7.40684857 43.04391924 2 46 C-0.80646165 46.44373213 -3.08489104 46.66891532 -5.875 46.625 C-6.93291748 46.61569458 -6.93291748 46.61569458 -8.01220703 46.60620117 C-13.35193218 46.38715767 -16.76297646 45.28961455 -20.6484375 41.65234375 C-23.60882416 38.03314271 -24 35.64002513 -24 31 C-21.36 31 -18.72 31 -16 31 C-15.34 33.31 -14.68 35.62 -14 38 C-9.34064046 39.55311985 -4.31473883 39.5341705 0.4375 38.4375 C2.93877224 36.13632954 2.61546855 33.259184 3 30 C1.99839844 29.67386719 0.99679687 29.34773438 -0.03515625 29.01171875 C-1.3776582 28.57047685 -2.72010307 28.12906129 -4.0625 27.6875 C-4.71927734 27.47416016 -5.37605469 27.26082031 -6.05273438 27.04101562 C-20.00197321 22.43707966 -20.00197321 22.43707966 -23 18 C-23.47798819 13.69810633 -23.51735944 11.19809555 -21.8125 7.25 C-15.76802918 -0.25348102 -9.16090881 -0.88575675 0 0 Z " fill="#EAEAE9" transform="translate(391,275)"/>
<path d="M0 0 C5.2237755 5.804195 5.3988837 9.80639845 5.3515625 17.49609375 C4.84703719 22.52452938 3.54248926 24.45751074 0 28 C-4.44757736 30.71125802 -8.93594685 30.90096651 -14 30 C-17.38509644 28.12480269 -20.29262105 25.90702745 -21.66796875 22.19921875 C-22.1048645 19.3054269 -22.20939893 16.48916063 -22.25 13.5625 C-22.27578125 12.45003906 -22.3015625 11.33757812 -22.328125 10.19140625 C-21.89216161 5.95114324 -20.21796576 3.48274092 -17.5625 0.25 C-12.79175014 -3.56659988 -5.0660107 -2.87530337 0 0 Z " fill="#050505" transform="translate(351,284)"/>
<path d="M0 0 C2.64 0 5.28 0 8 0 C8 18.15 8 36.3 8 55 C17.57 55 27.14 55 37 55 C37 57.31 37 59.62 37 62 C24.79 62 12.58 62 0 62 C0 41.54 0 21.08 0 0 Z " fill="#F0F0EF" transform="translate(238,258)"/>
<path d="M0 0 C4.95 0 9.9 0 15 0 C15 14.52 15 29.04 15 44 C10.05 44 5.1 44 0 44 C0 29.48 0 14.96 0 0 Z " fill="#F0F0F0" transform="translate(61,276)"/>
<path d="M0 0 C0.456 8.968 0.456 8.968 -3 13 C-7.36432982 15.87649011 -10.81108794 16.66040699 -16 16 C-18.9375 14.375 -18.9375 14.375 -21 12 C-21.5625 9 -21.5625 9 -21 6 C-18.21379605 2.44518807 -15.90060425 1.23185082 -11.40625 0.68359375 C-10.4471875 0.60238281 -9.488125 0.52117187 -8.5 0.4375 C-7.5409375 0.35371094 -6.581875 0.26992188 -5.59375 0.18359375 C-3.73281868 0.0518712 -1.86558736 0 0 0 Z " fill="#070707" transform="translate(306,299)"/>
<path d="M0 0 C3.0625 2.0625 3.0625 2.0625 5 5 C5.15129568 9.31192698 4.70478473 11.21466844 1.8125 14.4375 C-1.54388796 16.30215998 -3.2177434 16.6303761 -7 16 C-9.875 14.5 -9.875 14.5 -12 12 C-12.94237143 8.00106731 -12.61136591 5.01894318 -10.5 1.5 C-7.00997997 -0.59401202 -3.90160249 -0.87901716 0 0 Z " fill="#F2F2F1" transform="translate(72,256)"/>
<path d="M0 0 C0.7734375 0.07605469 1.546875 0.15210938 2.34375 0.23046875 C4.90163474 0.92091228 5.9253161 1.69778028 7.5 3.8125 C7.5 4.8025 7.5 5.7925 7.5 6.8125 C1.89 6.8125 -3.72 6.8125 -9.5 6.8125 C-7.22555556 1.12638891 -5.98170277 -0.68789582 0 0 Z " fill="#0E0E0D" transform="translate(164.5,286.1875)"/>
<path d="M0 0 C0.66 0.33 1.32 0.66 2 1 C-1.63 4.63 -5.26 8.26 -9 12 C-9 8.00102358 -7.64683965 6.93298448 -5 4 C-3.36643049 2.62631655 -1.7074998 1.28062485 0 0 Z " fill="#D6D6D5" transform="translate(116,61)"/>
<path d="M0 0 C0.99 0.33 1.98 0.66 3 1 C2.525625 1.350625 2.05125 1.70125 1.5625 2.0625 C-0.67873825 4.84163543 -0.67117658 7.5144717 -1 11 C-1.33 11 -1.66 11 -2 11 C-2.25 3.375 -2.25 3.375 0 0 Z " fill="#C3C3C3" transform="translate(62,257)"/>
</svg>
